<svg id="Layer_1_1_" enable-background="new 0 0 64 64" height="512" viewBox="0 0 64 64" width="512" xmlns="http://www.w3.org/2000/svg"><path d="m2 2h10v10h-10z" fill="#fda22e"/><path d="m38 10h10v10h-10z" fill="#4bbee5"/><path d="m2 18h10v10h-10z" fill="#fda22e"/><path d="m19 35h10v10h-10z" fill="#4bbee5"/><path d="m14 52h10v10h-10z" fill="#4bbee5"/><path d="m33 52h10v10h-10z" fill="#4bbee5"/><path d="m52 52h10v10h-10z" fill="#4bbee5"/><path d="m57 26v9h-1l-8-4 8-5z" fill="#f82f45"/><g fill="#2d366d"><path d="m19 24h-7v-2h7c1.654 0 3-1.346 3-3v-8c0-1.654-1.346-3-3-3h-7v-2h7c2.757 0 5 2.243 5 5v8c0 2.757-2.243 5-5 5z"/><path d="m23 14h15v2h-15z"/><path d="m39 41h-10v-2h10c1.654 0 3-1.346 3-3v-16h2v16c0 2.757-2.243 5-5 5z"/><path d="m14 58h-7c-2.757 0-5-2.243-5-5v-9c0-2.757 2.243-5 5-5h12v2h-12c-1.654 0-3 1.346-3 3v9c0 1.654 1.346 3 3 3h7z"/><path d="m43 56h9v2h-9z"/><path d="m56 26h2v31h-2z"/><path d="m24 56h9v2h-9z"/></g></svg>