<svg id="Layer_1" enable-background="new 0 0 256 256" height="512" viewBox="0 0 256 256" width="512" xmlns="http://www.w3.org/2000/svg"><path d="m212.235 184.417c-1.858 0-3.365-1.567-3.365-3.5v-20.077c0-.827-.647-1.5-1.442-1.5h-158.655c-.795 0-1.442.673-1.442 1.5v20.077c0 1.933-1.507 3.5-3.365 3.5s-3.365-1.567-3.365-3.5v-20.077c0-4.687 3.667-8.5 8.173-8.5h158.654c4.506 0 8.173 3.813 8.173 8.5v20.077c-.001 1.933-1.508 3.5-3.366 3.5z" fill="#e0ebfc"/><path d="m207.427 152.34h-75.962v-33.901h6.393c.772 0 1.253-.837.864-1.504l-9.758-16.716c-.386-.661-1.341-.661-1.727 0l-9.758 16.716c-.389.667.092 1.504.864 1.504h6.393v33.901h-75.963c-4.506 0-8.173 3.813-8.173 8.5v20.077c0 1.933 1.507 3.5 3.365 3.5s3.365-1.567 3.365-3.5v-20.077c0-.827.647-1.5 1.442-1.5h75.962v21.577c0 1.933 1.507 3.5 3.365 3.5s3.365-1.567 3.365-3.5v-21.577h75.962c.795 0 1.442.673 1.442 1.5v20.077c0 1.933 1.507 3.5 3.365 3.5s3.365-1.567 3.365-3.5v-20.077c.002-4.687-3.665-8.5-8.171-8.5z" fill="#6bdddd"/><path d="m212.234 186.417c-2.958 0-5.365-2.468-5.365-5.5v-19.577h-73.404v19.577c0 3.032-2.407 5.5-5.365 5.5s-5.366-2.468-5.366-5.5v-19.577h-73.403v19.577c0 3.032-2.407 5.5-5.365 5.5s-5.365-2.468-5.365-5.5v-20.077c0-5.79 4.563-10.5 10.173-10.5h73.961v-29.901h-4.393c-1.071 0-2.068-.577-2.602-1.506s-.53-2.081.01-3.006l9.759-16.717c.535-.917 1.528-1.487 2.591-1.487s2.055.57 2.591 1.488l9.758 16.715c.541.926.544 2.078.011 3.007s-1.53 1.506-2.601 1.506h-4.393v29.901h73.961c5.609 0 10.173 4.71 10.173 10.5v20.077c0 3.032-2.407 5.5-5.366 5.5zm-80.769-29.077h75.961c1.898 0 3.442 1.57 3.442 3.5v20.077c0 .827.612 1.5 1.365 1.5s1.366-.673 1.366-1.5v-20.077c0-3.584-2.77-6.5-6.173-6.5h-75.961c-1.104 0-2-.896-2-2v-33.901c0-1.104.896-2 2-2h4.651l-8.017-13.731-8.016 13.731h4.651c1.104 0 2 .896 2 2v33.901c0 1.104-.896 2-2 2h-75.961c-3.404 0-6.173 2.916-6.173 6.5v20.077c0 .827.612 1.5 1.365 1.5s1.365-.673 1.365-1.5v-20.077c0-1.93 1.544-3.5 3.442-3.5h75.961c1.104 0 2 .896 2 2v21.577c0 .827.613 1.5 1.366 1.5s1.365-.673 1.365-1.5v-21.577c.001-1.105.897-2 2.001-2z" fill="#3762cc"/><circle cx="212.767" cy="208.165" fill="#e0ebfc" r="36.48"/><path d="m225.917 230.593h-26.302v-9.277c0-7.263 5.888-13.151 13.151-13.151 7.263 0 13.151 5.888 13.151 13.151z" fill="#a4c9ff"/><path d="m225.917 232.593h-26.302c-1.104 0-2-.896-2-2v-9.277c0-8.354 6.797-15.15 15.151-15.15s15.151 6.797 15.151 15.15v9.277c0 1.104-.895 2-2 2zm-24.301-4h22.302v-7.277c0-6.148-5.002-11.15-11.151-11.15s-11.151 5.002-11.151 11.15z" fill="#3762cc"/><circle cx="212.767" cy="197.294" fill="#f9cfcf" r="13.151"/><path d="m212.767 212.445c-8.354 0-15.151-6.797-15.151-15.151s6.797-15.15 15.151-15.15 15.151 6.797 15.151 15.15c-.001 8.354-6.797 15.151-15.151 15.151zm0-26.301c-6.148 0-11.151 5.002-11.151 11.15s5.002 11.151 11.151 11.151 11.151-5.003 11.151-11.151-5.003-11.15-11.151-11.15z" fill="#3762cc"/><circle cx="212.767" cy="208.165" fill="#e0ebfc" r="36.48"/><path d="m225.917 230.593h-26.302v-9.277c0-7.263 5.888-13.151 13.151-13.151 7.263 0 13.151 5.888 13.151 13.151z" fill="#a4c9ff"/><path d="m225.917 232.593h-26.302c-1.104 0-2-.896-2-2v-9.277c0-8.354 6.797-15.15 15.151-15.15s15.151 6.797 15.151 15.15v9.277c0 1.104-.895 2-2 2zm-24.301-4h22.302v-7.277c0-6.148-5.002-11.15-11.151-11.15s-11.151 5.002-11.151 11.15z" fill="#3762cc"/><circle cx="212.767" cy="197.294" fill="#f9cfcf" r="13.151"/><path d="m212.767 212.445c-8.354 0-15.151-6.797-15.151-15.151s6.797-15.15 15.151-15.15 15.151 6.797 15.151 15.15c-.001 8.354-6.797 15.151-15.151 15.151zm0-26.301c-6.148 0-11.151 5.002-11.151 11.15s5.002 11.151 11.151 11.151 11.151-5.003 11.151-11.151-5.003-11.15-11.151-11.15z" fill="#3762cc"/><circle cx="128.304" cy="208.165" fill="#e0ebfc" r="36.48"/><path d="m141.455 230.593h-26.302v-9.277c0-7.263 5.888-13.151 13.151-13.151 7.263 0 13.151 5.888 13.151 13.151z" fill="#a4c9ff"/><path d="m141.455 232.593h-26.302c-1.104 0-2-.896-2-2v-9.277c0-8.354 6.797-15.15 15.151-15.15s15.151 6.797 15.151 15.15v9.277c0 1.104-.895 2-2 2zm-24.302-4h22.302v-7.277c0-6.148-5.002-11.15-11.151-11.15s-11.151 5.002-11.151 11.15z" fill="#3762cc"/><circle cx="128.304" cy="197.294" fill="#f9cfcf" r="13.151"/><path d="m128.304 212.445c-8.354 0-15.151-6.797-15.151-15.151s6.797-15.15 15.151-15.15 15.151 6.797 15.151 15.15c0 8.354-6.797 15.151-15.151 15.151zm0-26.301c-6.148 0-11.151 5.002-11.151 11.15s5.002 11.151 11.151 11.151 11.151-5.003 11.151-11.151-5.002-11.15-11.151-11.15z" fill="#3762cc"/><circle cx="128.304" cy="208.165" fill="#f9a7a7" r="36.48"/><path d="m141.455 230.593h-26.302v-9.277c0-7.263 5.888-13.151 13.151-13.151 7.263 0 13.151 5.888 13.151 13.151z" fill="#b9befc"/><path d="m141.455 232.593h-26.302c-1.104 0-2-.896-2-2v-9.277c0-8.354 6.797-15.15 15.151-15.15s15.151 6.797 15.151 15.15v9.277c0 1.104-.895 2-2 2zm-24.302-4h22.302v-7.277c0-6.148-5.002-11.15-11.151-11.15s-11.151 5.002-11.151 11.15z" fill="#3762cc"/><circle cx="128.304" cy="197.294" fill="#f9cfcf" r="13.151"/><path d="m128.304 212.445c-8.354 0-15.151-6.797-15.151-15.151s6.797-15.15 15.151-15.15 15.151 6.797 15.151 15.15c0 8.354-6.797 15.151-15.151 15.151zm0-26.301c-6.148 0-11.151 5.002-11.151 11.15s5.002 11.151 11.151 11.151 11.151-5.003 11.151-11.151-5.002-11.15-11.151-11.15z" fill="#3762cc"/><circle cx="43.233" cy="208.165" fill="#e0ebfc" r="36.48"/><path d="m56.384 230.593h-26.301v-9.277c0-7.263 5.888-13.151 13.151-13.151 7.263 0 13.151 5.888 13.151 13.151v9.277z" fill="#a4c9ff"/><path d="m56.384 232.593h-26.301c-1.104 0-2-.896-2-2v-9.277c0-8.354 6.797-15.15 15.151-15.15s15.151 6.797 15.151 15.15v9.277c-.001 1.104-.896 2-2.001 2zm-24.301-4h22.302v-7.277c0-6.148-5.002-11.15-11.151-11.15s-11.151 5.002-11.151 11.15z" fill="#3762cc"/><circle cx="43.233" cy="197.294" fill="#f9cfcf" r="13.151"/><path d="m43.233 212.445c-8.354 0-15.151-6.797-15.151-15.151s6.797-15.15 15.151-15.15 15.151 6.797 15.151 15.15c0 8.354-6.797 15.151-15.151 15.151zm0-26.301c-6.148 0-11.151 5.002-11.151 11.15s5.002 11.151 11.151 11.151 11.151-5.003 11.151-11.151-5.002-11.15-11.151-11.15z" fill="#3762cc"/><circle cx="43.233" cy="208.165" fill="#4671c6" r="36.48"/><path d="m56.384 230.593h-26.301v-9.277c0-7.263 5.888-13.151 13.151-13.151 7.263 0 13.151 5.888 13.151 13.151v9.277z" fill="#f9a7a7"/><path d="m56.384 232.593h-26.301c-1.104 0-2-.896-2-2v-9.277c0-8.354 6.797-15.15 15.151-15.15s15.151 6.797 15.151 15.15v9.277c-.001 1.104-.896 2-2.001 2zm-24.301-4h22.302v-7.277c0-6.148-5.002-11.15-11.151-11.15s-11.151 5.002-11.151 11.15z" fill="#3762cc"/><circle cx="43.233" cy="197.294" fill="#f9cfcf" r="13.151"/><path d="m43.233 212.445c-8.354 0-15.151-6.797-15.151-15.151s6.797-15.15 15.151-15.15 15.151 6.797 15.151 15.15c0 8.354-6.797 15.151-15.151 15.151zm0-26.301c-6.148 0-11.151 5.002-11.151 11.15s5.002 11.151 11.151 11.151 11.151-5.003 11.151-11.151-5.002-11.15-11.151-11.15z" fill="#3762cc"/><path d="m212.767 246.645c-21.218 0-38.479-17.262-38.479-38.479s17.262-38.479 38.479-38.479 38.479 17.262 38.479 38.479-17.262 38.479-38.479 38.479zm0-72.959c-19.012 0-34.479 15.468-34.479 34.479s15.467 34.479 34.479 34.479 34.479-15.468 34.479-34.479-15.467-34.479-34.479-34.479z" fill="#3762cc"/><path d="m128.304 246.645c-21.218 0-38.479-17.262-38.479-38.479s17.262-38.479 38.479-38.479 38.479 17.262 38.479 38.479-17.261 38.479-38.479 38.479zm0-72.959c-19.012 0-34.479 15.468-34.479 34.479s15.467 34.479 34.479 34.479 34.479-15.468 34.479-34.479-15.467-34.479-34.479-34.479z" fill="#3762cc"/><path d="m43.233 246.645c-21.218 0-38.479-17.262-38.479-38.479s17.262-38.479 38.479-38.479 38.479 17.262 38.479 38.479-17.261 38.479-38.479 38.479zm0-72.959c-19.012 0-34.479 15.468-34.479 34.479s15.467 34.479 34.479 34.479 34.479-15.468 34.479-34.479-15.466-34.479-34.479-34.479z" fill="#3762cc"/><circle cx="128.1" cy="53.855" fill="#a4c9ff" r="42.5"/><g fill="#ffea92"><path d="m140.16 61.073c2.662-2.908 4.288-6.781 4.288-11.035 0-9.028-7.319-16.347-16.347-16.347s-16.347 7.319-16.347 16.347c0 4.253 1.625 8.126 4.288 11.035h-.042c2.704 3.201 4.337 7.334 4.337 11.852 0 .274-.009.546-.021.817h1.655 5.313 1.635 4.904 2.064c-.012-.271-.021-.543-.021-.817 0-4.518 1.634-8.651 4.337-11.852z"/><path d="m140.201 34.69.067.067c.939.939 2.461.939 3.4 0l5.269-5.269c.939-.939.939-2.461 0-3.4l-.067-.067c-.939-.939-2.461-.939-3.4 0l-5.269 5.269c-.939.939-.939 2.461 0 3.4z"/><path d="m128.144 29.915h-.089c-1.33 0-2.408-1.078-2.408-2.408v-7.478c0-1.33 1.078-2.408 2.408-2.408h.089c1.33 0 2.408 1.078 2.408 2.408v7.478c0 1.33-1.078 2.408-2.408 2.408z"/><path d="m116.203 34.69-.067.067c-.939.939-2.461.939-3.4 0l-5.269-5.269c-.939-.939-.939-2.461 0-3.4l.067-.067c.939-.939 2.461-.939 3.4 0l5.269 5.269c.939.939.939 2.461 0 3.4z"/><path d="m145.673 41.798v-.095c0-1.328 1.077-2.405 2.405-2.405h7.452c1.328 0 2.405 1.077 2.405 2.405v.095c0 1.328-1.077 2.405-2.405 2.405h-7.452c-1.328-.001-2.405-1.077-2.405-2.405z"/><path d="m98.266 41.798v-.095c0-1.328 1.077-2.405 2.405-2.405h7.452c1.328 0 2.405 1.077 2.405 2.405v.095c0 1.328-1.077 2.405-2.405 2.405h-7.452c-1.329-.001-2.405-1.077-2.405-2.405z"/></g><path d="m128.1 51.386c-2.934 0-5.313 2.379-5.313 5.313 0 2.234 1.381 4.143 3.334 4.928v12.115h3.959v-12.115c1.953-.785 3.334-2.694 3.334-4.928-.001-2.934-2.38-5.313-5.314-5.313zm0 8.309c-1.652 0-2.996-1.344-2.996-2.996s1.344-2.996 2.996-2.996 2.996 1.344 2.996 2.996-1.344 2.996-2.996 2.996z" fill="#f9a7a7"/><path d="m136.196 78.646h-16.191c-.495 0-.895-.401-.895-.895v-3.113c0-.495.401-.895.895-.895h16.191c.495 0 .895.401.895.895v3.113c0 .494-.401.895-.895.895z" fill="#4671c6"/><path d="m134.858 83.55h-13.107c-.782 0-1.416-.634-1.416-1.416v-3.488h15.939v3.488c0 .783-.634 1.416-1.416 1.416z" fill="#4671c6"/><path d="m129.735 90.089h-3.27c-2.709 0-4.904-2.196-4.904-4.904v-1.635h13.078v1.635c0 2.709-2.196 4.904-4.904 4.904z" fill="#4671c6"/><path d="m128.1 98.355c-24.538 0-44.5-19.963-44.5-44.5s19.962-44.5 44.5-44.5 44.5 19.963 44.5 44.5-19.962 44.5-44.5 44.5zm0-85c-22.332 0-40.5 18.168-40.5 40.5s18.168 40.5 40.5 40.5 40.5-18.168 40.5-40.5-18.168-40.5-40.5-40.5z" fill="#3762cc"/></svg>