<svg id="svg" version="1.1" xmlns="http://www.w3.org/2000/svg" xmlns:xlink="http://www.w3.org/1999/xlink" width="400" height="403.14606741573033" viewBox="0, 0, 400,403.14606741573033"><g id="svgg"><path id="path0" d="M185.600 0.257 C 180.767 0.697,170.588 2.118,167.200 2.826 C 165.110 3.263,162.177 3.878,160.682 4.193 C 159.188 4.509,156.488 4.962,154.682 5.201 C 151.164 5.666,148.229 6.500,147.104 7.354 C 146.415 7.877,147.557 12.633,148.736 14.151 C 148.927 14.398,149.581 16.040,150.190 17.800 C 150.798 19.560,151.804 22.080,152.426 23.400 C 153.048 24.720,154.038 27.060,154.627 28.600 C 155.216 30.140,155.827 31.490,155.984 31.600 C 156.141 31.710,156.467 32.340,156.709 33.000 C 157.643 35.547,159.316 39.409,159.567 39.600 C 159.712 39.710,160.612 41.870,161.567 44.400 C 162.522 46.930,163.442 49.180,163.611 49.400 C 163.781 49.620,164.552 51.442,165.325 53.449 C 166.097 55.456,166.921 57.436,167.155 57.849 C 167.389 58.262,168.397 60.350,169.396 62.489 C 170.479 64.809,171.572 66.580,172.106 66.879 C 173.268 67.529,193.887 67.770,209.403 67.315 C 224.083 66.883,223.685 67.139,227.620 55.600 C 228.333 53.510,229.074 51.597,229.267 51.348 C 229.460 51.100,230.248 49.134,231.018 46.979 C 231.788 44.824,232.584 42.860,232.788 42.615 C 232.991 42.369,233.706 40.682,234.376 38.866 C 235.046 37.049,236.018 34.626,236.537 33.481 C 237.056 32.337,237.985 29.780,238.602 27.800 C 239.218 25.820,239.865 24.014,240.039 23.786 C 240.213 23.558,240.906 21.997,241.579 20.317 C 242.252 18.637,243.237 16.393,243.768 15.331 C 246.510 9.852,246.492 7.150,243.705 5.915 C 234.270 1.735,202.915 -1.318,185.600 0.257 M219.400 12.554 C 223.915 13.154,228.613 14.190,229.611 14.807 C 230.085 15.100,230.030 15.647,229.264 18.277 C 226.930 26.287,216.122 54.160,215.080 54.855 C 214.777 55.057,187.990 55.800,181.007 55.800 L 179.413 55.800 177.755 51.800 C 176.232 48.127,165.786 23.181,163.877 18.656 L 163.057 16.712 163.992 16.006 C 165.762 14.671,173.545 13.233,183.400 12.420 C 186.260 12.184,189.320 11.921,190.200 11.835 C 193.888 11.474,215.223 12.000,219.400 12.554 M269.602 14.647 C 269.372 15.281,269.007 16.160,268.791 16.600 C 268.434 17.328,266.483 25.005,265.792 28.400 C 265.636 29.170,265.372 29.980,265.207 30.200 C 265.041 30.420,264.237 33.660,263.420 37.400 C 262.603 41.140,261.698 44.920,261.411 45.800 C 261.123 46.680,260.325 50.190,259.638 53.600 C 258.950 57.010,258.219 60.160,258.013 60.600 C 257.421 61.861,255.958 69.514,255.717 72.615 C 255.477 75.692,256.384 78.335,257.970 79.184 C 258.392 79.410,258.977 79.825,259.269 80.108 C 260.177 80.984,264.769 84.000,265.195 84.000 C 265.418 84.000,265.600 84.164,265.600 84.364 C 265.600 84.564,266.725 85.457,268.100 86.348 C 269.475 87.238,271.680 88.733,273.000 89.669 C 277.565 92.908,281.420 95.568,286.200 98.778 C 288.840 100.551,291.226 102.189,291.502 102.418 C 294.937 105.271,297.489 105.271,302.245 102.419 C 304.096 101.308,305.727 100.400,305.868 100.400 C 306.009 100.400,306.681 99.980,307.362 99.467 C 308.043 98.953,309.770 97.860,311.200 97.037 C 312.630 96.214,315.150 94.669,316.800 93.605 C 318.450 92.540,321.060 90.892,322.600 89.942 C 324.140 88.993,325.642 87.983,325.938 87.699 C 326.234 87.414,326.998 86.911,327.636 86.581 C 328.844 85.957,334.370 82.348,336.800 80.596 C 337.570 80.042,339.460 78.747,341.000 77.720 C 343.580 76.000,345.102 74.937,348.504 72.480 C 350.327 71.163,350.651 69.042,349.188 68.000 C 349.034 67.890,348.542 67.080,348.095 66.200 C 346.503 63.062,341.466 57.367,335.763 52.258 C 330.082 47.170,329.515 46.684,327.619 45.292 C 326.639 44.573,325.739 43.845,325.619 43.673 C 325.499 43.502,323.600 42.035,321.400 40.413 C 319.200 38.791,316.770 36.989,316.000 36.409 C 313.976 34.884,308.030 31.033,306.438 30.215 C 305.688 29.830,304.712 29.176,304.267 28.762 C 303.823 28.348,303.086 27.891,302.629 27.747 C 302.173 27.603,300.540 26.725,299.000 25.797 C 292.700 21.999,282.153 16.920,277.800 15.588 C 276.260 15.116,274.681 14.562,274.291 14.357 C 272.292 13.301,270.040 13.440,269.602 14.647 M113.000 23.188 C 107.120 25.261,97.896 30.214,90.400 35.325 C 89.850 35.700,88.185 36.831,86.700 37.839 C 85.215 38.847,84.000 39.807,84.000 39.972 C 84.000 40.137,83.595 40.465,83.100 40.701 C 81.661 41.388,76.603 45.487,70.424 50.975 C 62.518 57.996,44.000 78.545,44.000 80.297 C 44.000 80.574,43.841 80.800,43.646 80.800 C 43.217 80.800,42.000 83.272,42.000 84.142 C 42.000 84.484,42.855 85.399,43.900 86.176 C 44.945 86.953,46.026 87.779,46.302 88.012 C 47.673 89.168,57.090 94.148,73.800 102.553 C 81.500 106.426,88.003 109.763,88.251 109.968 C 88.957 110.550,94.543 113.200,95.065 113.200 C 95.323 113.200,95.600 113.400,95.682 113.645 C 96.526 116.179,103.061 112.886,111.400 105.724 C 114.166 103.349,115.537 102.217,117.400 100.771 C 118.280 100.088,119.270 99.277,119.600 98.969 C 119.930 98.661,121.910 97.011,124.000 95.303 C 129.706 90.638,130.325 90.088,133.900 86.508 C 136.099 84.306,137.200 82.900,137.200 82.293 C 137.200 81.187,134.909 72.192,134.391 71.263 C 134.187 70.899,133.368 68.170,132.570 65.200 C 131.772 62.230,130.981 59.620,130.811 59.400 C 130.641 59.180,129.829 56.660,129.005 53.800 C 128.181 50.940,127.373 48.420,127.209 48.200 C 127.046 47.980,126.240 45.550,125.420 42.800 C 124.599 40.050,123.783 37.620,123.606 37.400 C 123.430 37.180,122.707 35.110,122.000 32.800 C 121.293 30.490,120.466 28.150,120.162 27.600 C 119.858 27.050,119.234 25.565,118.776 24.300 C 117.787 21.571,117.658 21.546,113.000 23.188 M286.640 32.804 C 302.932 40.288,333.200 63.179,333.200 68.016 C 333.200 68.822,312.800 82.363,303.479 87.744 C 297.129 91.410,297.176 91.399,295.015 89.749 C 294.011 88.982,290.419 86.672,287.034 84.614 C 276.649 78.303,269.656 73.368,268.443 71.495 C 267.406 69.892,276.411 32.831,278.497 30.118 C 278.923 29.565,281.277 30.341,286.640 32.804 M113.747 45.619 C 120.426 63.906,124.254 77.544,123.146 79.101 C 121.401 81.550,100.735 98.543,97.296 100.356 C 96.363 100.848,63.236 84.674,60.219 82.253 L 59.038 81.306 60.412 79.039 C 66.161 69.554,94.253 45.885,107.185 39.631 C 111.244 37.668,110.644 37.121,113.747 45.619 M364.517 87.912 C 363.812 88.510,362.120 89.900,360.758 91.000 C 359.395 92.100,357.543 93.654,356.641 94.454 C 355.738 95.254,353.920 96.853,352.600 98.009 C 347.649 102.343,345.080 104.653,343.267 106.400 C 342.239 107.390,339.700 109.730,337.625 111.600 C 335.549 113.470,332.129 116.659,330.025 118.687 C 327.921 120.716,325.095 123.416,323.745 124.687 C 318.698 129.442,317.620 131.646,319.584 133.200 C 319.723 133.310,320.613 135.830,321.562 138.800 C 322.511 141.770,323.423 144.380,323.590 144.600 C 323.757 144.820,324.571 147.070,325.400 149.600 C 326.229 152.130,327.039 154.380,327.200 154.600 C 327.361 154.820,328.171 157.070,329.000 159.600 C 329.829 162.130,330.641 164.380,330.805 164.600 C 330.969 164.820,331.770 167.114,332.585 169.697 C 333.401 172.281,334.212 174.484,334.389 174.593 C 334.565 174.702,334.827 175.417,334.970 176.182 C 335.114 176.946,335.372 177.659,335.545 177.766 C 337.517 178.984,393.475 180.460,398.000 179.413 C 399.942 178.964,399.987 178.824,399.994 173.170 C 400.001 167.293,397.628 152.970,396.388 151.400 C 396.214 151.180,395.409 148.030,394.600 144.400 C 393.791 140.770,392.980 137.620,392.799 137.400 C 392.617 137.180,391.803 134.930,390.989 132.400 C 390.176 129.870,389.368 127.620,389.194 127.400 C 389.020 127.180,388.206 124.930,387.385 122.400 C 386.564 119.870,385.737 117.740,385.546 117.667 C 385.356 117.593,385.200 117.356,385.200 117.139 C 385.200 116.922,384.617 115.902,383.905 114.872 C 382.725 113.166,381.024 110.034,376.371 101.000 C 375.465 99.240,374.504 97.530,374.236 97.200 C 373.969 96.870,373.138 95.565,372.390 94.300 C 371.643 93.035,370.885 92.000,370.706 92.000 C 370.527 92.000,370.222 91.595,370.028 91.100 C 369.551 89.878,366.850 86.797,366.269 86.812 C 366.011 86.818,365.223 87.313,364.517 87.912 M365.651 106.908 C 377.133 126.623,386.611 151.979,387.285 164.787 C 387.397 166.926,387.374 166.980,386.200 167.240 C 384.562 167.602,365.643 167.660,355.184 167.334 L 346.639 167.068 344.917 165.481 C 342.929 163.648,339.447 156.853,336.985 150.000 C 334.962 144.369,332.015 134.789,332.007 133.816 C 331.992 132.084,362.173 104.339,363.997 104.408 C 364.109 104.412,364.853 105.537,365.651 106.908 M25.968 106.913 C 25.181 107.841,24.011 109.496,23.368 110.592 C 22.726 111.687,22.020 112.887,21.800 113.258 C 20.337 115.725,16.576 123.002,15.731 125.000 C 15.173 126.320,14.558 127.595,14.365 127.833 C 14.172 128.071,13.379 129.871,12.603 131.833 C 11.827 133.795,10.945 135.850,10.644 136.400 C 10.344 136.950,9.531 139.650,8.840 142.400 C 8.148 145.150,7.415 147.697,7.212 148.061 C 7.009 148.424,6.206 151.754,5.428 155.461 C 4.650 159.167,3.843 162.740,3.636 163.400 C 1.371 170.601,-0.955 194.542,0.173 199.036 L 0.446 200.124 7.323 199.842 C 13.536 199.586,20.721 198.824,34.000 197.013 C 48.759 195.000,53.083 194.351,53.800 194.044 C 54.240 193.855,56.825 193.313,59.544 192.841 C 66.154 191.691,65.558 192.294,67.354 184.938 C 68.205 181.452,69.023 178.510,69.172 178.400 C 69.321 178.290,70.129 175.680,70.968 172.600 C 71.806 169.520,72.628 166.820,72.793 166.600 C 72.959 166.380,73.776 163.590,74.609 160.400 C 75.443 157.210,76.274 154.330,76.458 154.000 C 77.931 151.346,78.773 144.264,77.827 142.480 C 77.014 140.946,68.608 133.920,62.016 129.264 C 61.188 128.679,58.414 126.625,55.852 124.700 C 53.290 122.775,51.015 121.200,50.797 121.200 C 50.579 121.200,50.400 121.037,50.400 120.838 C 50.400 120.638,49.594 119.941,48.608 119.289 C 47.623 118.636,46.228 117.641,45.508 117.077 C 42.796 114.952,36.825 110.800,36.481 110.800 C 36.285 110.800,35.796 110.437,35.395 109.994 C 34.631 109.151,28.273 105.190,27.719 105.213 C 27.544 105.220,26.756 105.985,25.968 106.913 M195.400 113.175 C 194.960 113.362,192.665 113.709,190.300 113.946 C 186.059 114.371,176.978 116.195,176.200 116.778 C 175.980 116.943,174.180 117.571,172.200 118.174 C 170.220 118.776,167.520 119.782,166.200 120.408 C 159.331 123.667,157.698 124.465,156.600 125.103 C 153.986 126.621,147.609 130.862,147.378 131.236 C 147.243 131.454,146.412 132.087,145.532 132.643 C 143.503 133.924,134.338 143.050,131.983 146.135 C 128.846 150.244,125.580 154.952,124.724 156.600 C 124.267 157.480,123.750 158.293,123.575 158.406 C 123.049 158.747,118.122 169.236,117.377 171.600 C 116.996 172.810,116.336 174.586,115.910 175.548 C 114.956 177.703,113.364 184.635,112.985 188.285 C 112.830 189.778,112.519 191.229,112.295 191.509 C 111.743 192.197,111.731 206.187,112.281 206.879 C 112.509 207.166,112.818 209.020,112.967 211.000 C 113.454 217.458,115.043 226.899,115.996 229.000 C 116.196 229.440,117.007 231.774,117.798 234.188 C 118.589 236.601,119.363 238.671,119.518 238.788 C 119.673 238.904,120.572 240.530,121.516 242.400 C 123.510 246.352,125.992 250.498,127.104 251.735 C 127.531 252.211,127.982 252.870,128.105 253.200 C 129.375 256.591,142.751 269.649,148.800 273.403 C 149.790 274.017,150.690 274.642,150.800 274.791 C 151.379 275.577,161.646 280.995,163.381 281.431 C 163.941 281.572,164.400 281.825,164.400 281.994 C 164.400 282.163,166.065 282.891,168.100 283.612 C 170.135 284.333,172.523 285.240,173.408 285.629 C 175.438 286.522,180.373 287.787,185.012 288.604 C 186.985 288.952,189.500 289.418,190.600 289.640 C 193.142 290.153,207.491 290.156,210.400 289.644 C 220.526 287.861,227.288 286.333,228.196 285.623 C 228.418 285.449,229.860 284.894,231.400 284.390 C 234.245 283.459,244.035 278.952,244.400 278.404 C 244.510 278.240,245.551 277.625,246.714 277.039 C 247.876 276.452,249.172 275.628,249.592 275.208 C 250.013 274.787,250.876 274.174,251.511 273.846 C 257.586 270.704,272.508 255.401,275.392 249.355 C 275.718 248.670,276.232 247.906,276.533 247.655 C 276.835 247.405,277.670 245.895,278.389 244.300 C 280.919 238.687,281.708 236.974,283.044 234.200 C 284.256 231.681,285.871 226.087,286.623 221.800 C 286.778 220.920,287.039 220.020,287.203 219.800 C 289.752 216.386,289.673 189.624,287.088 181.000 C 286.759 179.900,286.003 177.290,285.408 175.200 C 284.814 173.110,283.918 170.500,283.418 169.400 C 282.917 168.300,282.006 166.185,281.393 164.700 C 280.781 163.215,280.151 162.000,279.994 162.000 C 279.837 162.000,279.403 161.200,279.029 160.221 C 273.233 145.043,249.164 123.963,231.000 118.157 C 229.020 117.524,227.310 116.888,227.200 116.745 C 225.816 114.936,198.473 111.866,195.400 113.175 M34.081 123.816 C 35.409 124.594,39.850 127.712,43.948 130.743 C 48.047 133.775,54.054 138.133,57.297 140.428 C 66.359 146.839,66.403 147.108,61.054 163.471 C 59.351 168.679,57.784 174.318,57.405 176.600 C 57.039 178.800,56.600 180.744,56.430 180.920 C 55.441 181.941,23.929 186.879,15.824 187.282 L 13.448 187.400 13.093 185.800 C 10.822 175.572,26.098 122.400,31.308 122.400 C 31.504 122.400,32.752 123.037,34.081 123.816 M214.486 126.355 C 234.349 130.422,250.831 140.292,260.561 153.947 C 277.575 177.821,281.298 198.791,273.212 225.200 C 261.098 264.766,216.279 287.471,176.200 274.346 C 122.973 256.916,106.122 190.117,144.800 149.874 C 162.975 130.964,190.926 121.530,214.486 126.355 M388.000 204.432 C 386.570 204.607,383.960 204.947,382.200 205.188 C 380.440 205.428,374.590 206.175,369.200 206.848 C 363.810 207.521,359.220 208.213,359.000 208.386 C 358.780 208.559,357.520 208.829,356.200 208.986 C 353.978 209.249,344.428 210.812,341.200 211.440 C 340.430 211.590,339.620 211.847,339.400 212.011 C 339.180 212.175,338.236 212.436,337.301 212.590 C 334.547 213.044,334.233 213.568,332.612 220.400 C 331.802 223.810,330.904 227.140,330.615 227.800 C 330.326 228.460,329.511 231.250,328.806 234.000 C 328.100 236.750,327.380 239.180,327.207 239.400 C 327.034 239.620,326.233 242.500,325.427 245.800 C 324.621 249.100,323.796 252.160,323.594 252.600 C 322.724 254.500,321.854 259.017,321.956 261.116 C 322.006 262.151,324.614 264.772,326.900 266.086 C 327.725 266.560,328.400 267.079,328.400 267.241 C 328.400 267.403,329.075 267.948,329.900 268.453 C 331.704 269.557,337.497 273.698,338.556 274.640 C 338.972 275.009,340.322 276.009,341.556 276.862 C 342.790 277.714,344.880 279.216,346.200 280.199 C 347.520 281.182,349.770 282.810,351.200 283.817 C 355.003 286.495,360.423 290.444,363.404 292.709 C 364.062 293.209,365.508 294.226,366.617 294.969 C 367.727 295.711,368.851 296.579,369.115 296.898 C 372.262 300.690,376.199 298.283,380.273 290.076 C 381.113 288.384,381.897 286.910,382.016 286.800 C 382.276 286.559,384.400 281.801,384.400 281.459 C 384.400 281.326,385.006 279.909,385.748 278.309 C 386.489 276.709,387.412 274.410,387.799 273.200 C 388.186 271.990,388.838 270.248,389.248 269.328 C 389.658 268.409,390.578 265.619,391.293 263.128 C 392.007 260.638,392.725 258.501,392.889 258.380 C 393.054 258.259,393.843 254.749,394.643 250.580 C 395.444 246.411,396.250 242.640,396.435 242.200 C 397.566 239.514,399.600 220.086,399.556 212.400 C 399.505 203.621,399.846 204.209,394.783 204.157 C 392.482 204.133,389.430 204.257,388.000 204.432 M386.300 217.452 C 390.780 218.653,380.583 263.735,372.311 279.300 C 370.572 282.572,369.275 282.147,359.000 274.932 C 355.700 272.615,350.180 268.833,346.734 266.527 C 333.483 257.662,333.761 258.801,339.978 238.800 C 341.038 235.390,342.406 230.655,343.018 228.279 C 343.698 225.641,344.379 223.826,344.766 223.619 C 346.722 222.576,361.966 219.748,372.800 218.419 C 382.004 217.289,384.915 217.081,386.300 217.452 M7.000 223.191 C 6.340 223.364,5.023 223.527,4.074 223.553 C 0.857 223.641,0.800 223.745,0.800 229.529 C 0.800 236.274,2.560 249.967,3.612 251.400 C 3.773 251.620,4.115 253.420,4.371 255.400 C 4.793 258.656,6.462 264.795,7.199 265.800 C 7.361 266.020,8.171 268.270,9.000 270.800 C 9.829 273.330,10.643 275.580,10.809 275.800 C 10.975 276.020,11.423 277.201,11.804 278.424 C 12.186 279.648,12.999 281.358,13.612 282.224 C 14.224 283.091,16.019 286.320,17.601 289.400 C 21.037 296.091,24.371 302.047,24.990 302.600 C 25.237 302.820,25.907 303.846,26.479 304.879 C 28.457 308.449,34.142 315.600,35.002 315.600 C 35.980 315.600,52.761 301.346,61.800 292.837 C 62.020 292.630,65.440 289.424,69.400 285.713 C 80.327 275.472,82.879 272.682,82.574 271.314 C 81.914 268.343,80.308 262.637,79.969 262.055 C 79.759 261.695,79.062 259.661,78.420 257.535 C 77.777 255.409,76.909 252.889,76.490 251.935 C 76.070 250.981,75.131 248.400,74.402 246.200 C 73.673 244.000,72.964 242.110,72.827 242.000 C 72.689 241.890,72.060 240.270,71.428 238.400 C 70.796 236.530,69.937 234.280,69.518 233.400 C 69.099 232.520,68.194 230.360,67.507 228.600 C 65.890 224.457,65.950 224.518,63.282 224.215 C 54.683 223.237,9.929 222.423,7.000 223.191 M56.923 236.000 C 57.843 237.003,68.840 265.664,69.083 267.694 L 69.310 269.589 66.355 272.340 C 44.491 292.696,42.295 294.676,39.417 296.635 L 37.434 297.984 36.535 297.139 C 29.023 290.082,13.600 250.048,13.600 237.608 L 13.600 235.644 15.500 235.482 C 21.379 234.982,56.390 235.419,56.923 236.000 M301.105 290.154 C 300.503 290.480,298.253 292.256,296.105 294.100 C 293.957 295.944,291.570 297.874,290.800 298.388 C 290.030 298.903,289.220 299.530,289.000 299.781 C 288.780 300.033,287.855 300.770,286.944 301.419 C 285.440 302.491,280.104 306.727,275.664 310.374 C 274.709 311.158,273.168 312.340,272.240 313.000 C 270.076 314.538,269.466 315.043,267.344 317.047 C 265.706 318.595,265.600 318.825,265.600 320.847 C 265.600 322.828,268.068 332.831,268.796 333.800 C 268.961 334.020,269.783 336.900,270.621 340.200 C 271.460 343.500,272.258 346.290,272.396 346.400 C 272.533 346.510,273.338 349.300,274.185 352.600 C 275.031 355.900,275.876 358.660,276.062 358.733 C 276.248 358.807,276.400 359.105,276.400 359.397 C 276.400 359.957,279.047 369.377,279.492 370.400 C 279.636 370.730,280.574 373.340,281.577 376.200 C 283.566 381.872,283.904 382.230,286.184 381.076 C 286.853 380.738,288.480 380.078,289.800 379.610 C 292.391 378.691,299.971 375.082,301.600 373.992 C 302.150 373.624,303.860 372.640,305.400 371.806 C 306.940 370.971,308.290 370.172,308.400 370.030 C 308.510 369.888,309.950 368.919,311.600 367.877 C 313.250 366.835,315.140 365.583,315.800 365.095 C 316.460 364.606,318.350 363.223,320.000 362.020 C 322.706 360.047,324.483 358.650,329.352 354.669 C 331.403 352.991,338.700 346.016,341.542 343.016 C 342.784 341.704,344.610 339.803,345.600 338.791 C 346.590 337.778,348.300 335.907,349.400 334.632 C 350.500 333.358,351.890 331.749,352.488 331.057 C 355.161 327.968,358.701 323.204,359.177 322.056 C 359.463 321.365,359.855 320.800,360.049 320.800 C 360.833 320.800,360.328 319.059,359.311 318.258 C 357.954 317.188,349.921 312.417,349.462 312.407 C 349.276 312.403,348.646 312.062,348.062 311.649 C 347.478 311.237,345.470 310.126,343.600 309.182 C 341.730 308.237,340.110 307.333,340.000 307.174 C 339.890 307.014,338.381 306.219,336.648 305.408 C 334.914 304.597,333.294 303.759,333.048 303.545 C 332.801 303.331,331.070 302.398,329.200 301.471 C 322.548 298.174,312.597 292.996,312.392 292.725 C 310.837 290.671,303.313 288.957,301.105 290.154 M100.800 299.731 C 100.250 300.045,98.990 300.747,98.000 301.291 C 96.045 302.364,89.125 306.802,88.800 307.191 C 88.690 307.322,86.170 309.036,83.200 311.000 C 80.230 312.964,77.710 314.677,77.600 314.807 C 77.406 315.037,72.063 318.638,62.200 325.185 C 59.560 326.938,56.950 328.709,56.400 329.120 C 55.850 329.532,54.187 330.543,52.704 331.367 C 49.423 333.189,48.963 334.200,50.779 335.600 C 50.922 335.710,51.552 336.700,52.180 337.800 C 53.481 340.079,68.088 354.882,71.751 357.634 C 76.610 361.285,78.341 362.507,83.600 366.001 C 86.570 367.974,89.183 369.738,89.406 369.922 C 89.629 370.105,91.069 370.952,92.606 371.804 C 94.143 372.656,95.490 373.461,95.600 373.594 C 96.132 374.233,107.268 380.349,112.000 382.601 C 113.650 383.386,115.810 384.445,116.800 384.954 C 117.790 385.464,119.770 386.288,121.200 386.786 C 122.630 387.284,124.410 387.961,125.156 388.291 C 126.818 389.026,131.474 389.859,131.845 389.488 C 131.994 389.340,132.604 387.369,133.201 385.109 C 133.798 382.849,134.397 380.730,134.532 380.400 C 134.667 380.070,135.242 377.640,135.809 375.000 C 136.377 372.360,137.125 369.030,137.473 367.600 C 137.820 366.170,138.949 360.950,139.981 356.000 C 141.014 351.050,141.971 346.730,142.109 346.400 C 142.371 345.773,144.566 332.753,144.949 329.557 C 145.246 327.070,144.476 326.098,138.989 322.038 C 136.575 320.252,134.345 318.568,134.034 318.296 C 133.723 318.023,132.526 317.170,131.375 316.400 C 130.224 315.630,126.637 313.200,123.403 311.000 C 115.185 305.410,113.075 304.061,112.500 304.028 C 112.225 304.013,112.000 303.849,112.000 303.665 C 112.000 301.544,103.098 298.417,100.800 299.731 M310.543 304.952 C 312.994 306.356,316.890 308.448,319.200 309.601 C 332.929 316.454,342.400 322.013,342.400 323.218 C 342.400 325.935,322.336 345.498,310.597 354.228 C 304.078 359.075,292.996 365.552,291.147 365.594 C 290.246 365.615,286.569 355.260,281.361 338.038 L 277.562 325.477 278.881 324.099 C 283.917 318.840,304.369 302.400,305.877 302.400 C 305.992 302.400,308.092 303.549,310.543 304.952 M111.891 317.460 C 135.694 332.688,134.084 328.214,127.053 359.600 C 125.846 364.990,124.734 370.255,124.584 371.300 C 124.172 374.147,120.997 373.625,111.642 369.173 C 96.515 361.973,67.600 340.910,67.600 337.090 C 67.600 335.585,101.430 312.446,103.691 312.405 C 103.850 312.402,107.540 314.677,111.891 317.460 M182.898 335.553 C 177.997 336.057,176.495 337.630,172.732 346.200 C 172.056 347.740,171.013 350.080,170.415 351.400 C 169.816 352.720,168.909 354.970,168.398 356.400 C 167.888 357.830,167.334 359.180,167.169 359.400 C 167.003 359.620,166.199 361.600,165.382 363.800 C 164.564 366.000,163.756 367.980,163.585 368.200 C 163.414 368.420,162.613 370.220,161.805 372.200 C 160.997 374.180,160.005 376.452,159.601 377.248 C 159.197 378.044,158.396 379.934,157.821 381.448 C 157.245 382.962,156.490 384.740,156.143 385.400 C 154.193 389.107,153.100 394.655,154.247 395.031 C 154.661 395.167,155.810 395.688,156.800 396.190 C 157.790 396.692,160.220 397.503,162.200 397.993 C 164.180 398.482,166.160 399.038,166.600 399.228 C 175.420 403.044,211.848 403.940,230.559 400.801 C 234.497 400.140,239.134 399.600,240.865 399.600 C 242.595 399.600,244.323 399.415,244.705 399.188 C 245.087 398.962,246.930 398.272,248.800 397.654 C 252.813 396.329,252.997 395.963,251.393 392.497 C 250.808 391.234,249.789 388.670,249.130 386.800 C 248.470 384.930,247.707 383.040,247.435 382.600 C 247.162 382.160,246.349 380.090,245.628 378.000 C 244.908 375.910,244.096 373.840,243.825 373.400 C 243.554 372.960,242.740 370.890,242.016 368.800 C 241.292 366.710,240.457 364.609,240.161 364.131 C 239.864 363.653,239.102 361.763,238.467 359.931 C 237.832 358.099,236.928 355.757,236.458 354.726 C 235.988 353.695,235.033 351.265,234.336 349.326 C 233.638 347.387,232.848 345.440,232.580 345.000 C 232.311 344.560,231.615 342.741,231.032 340.958 C 229.531 336.363,229.648 336.459,225.000 335.998 C 219.988 335.501,186.813 335.150,182.898 335.553 M219.518 347.757 C 220.219 348.120,221.071 348.841,221.410 349.360 C 223.698 352.851,236.623 385.525,236.331 387.081 C 235.497 391.538,197.385 392.587,175.258 388.762 C 168.869 387.658,168.556 386.814,171.820 379.487 C 175.145 372.025,178.495 364.134,181.622 356.400 C 185.426 346.989,185.254 347.289,186.930 347.112 C 191.664 346.612,218.324 347.140,219.518 347.757 " stroke="none" fill="#04b1ec" fill-rule="evenodd"></path><path id="path1" d="M190.200 11.835 C 189.320 11.921,186.260 12.184,183.400 12.420 C 173.545 13.233,165.762 14.671,163.992 16.006 L 163.057 16.712 163.877 18.656 C 165.786 23.181,176.232 48.127,177.755 51.800 L 179.413 55.800 181.007 55.800 C 187.990 55.800,214.777 55.057,215.080 54.855 C 216.122 54.160,226.930 26.287,229.264 18.277 C 230.320 14.651,230.417 14.804,226.424 13.799 C 220.391 12.280,198.035 11.068,190.200 11.835 M278.497 30.118 C 276.411 32.831,267.406 69.892,268.443 71.495 C 269.656 73.368,276.649 78.303,287.034 84.614 C 290.419 86.672,294.011 88.982,295.015 89.749 C 297.176 91.399,297.129 91.410,303.479 87.744 C 312.800 82.363,333.200 68.822,333.200 68.016 C 333.200 66.299,325.742 58.786,318.135 52.840 C 303.838 41.666,280.087 28.051,278.497 30.118 M107.185 39.631 C 94.253 45.885,66.161 69.554,60.412 79.039 L 59.038 81.306 60.219 82.253 C 63.236 84.674,96.363 100.848,97.296 100.356 C 100.735 98.543,121.401 81.550,123.146 79.101 C 124.254 77.544,120.426 63.906,113.747 45.619 C 110.644 37.121,111.244 37.668,107.185 39.631 M360.313 107.133 C 351.246 114.253,331.994 132.400,332.007 133.816 C 332.015 134.789,334.962 144.369,336.985 150.000 C 339.447 156.853,342.929 163.648,344.917 165.481 L 346.639 167.068 355.184 167.334 C 365.643 167.660,384.562 167.602,386.200 167.240 C 391.394 166.091,379.104 130.008,365.651 106.908 C 363.891 103.885,364.482 103.860,360.313 107.133 M29.899 123.500 C 23.719 129.973,11.091 176.784,13.093 185.800 L 13.448 187.400 15.824 187.282 C 23.929 186.879,55.441 181.941,56.430 180.920 C 56.600 180.744,57.039 178.800,57.405 176.600 C 57.784 174.318,59.351 168.679,61.054 163.471 C 66.403 147.108,66.359 146.839,57.297 140.428 C 54.054 138.133,48.047 133.775,43.948 130.743 C 32.595 122.346,31.527 121.795,29.899 123.500 M191.600 125.822 C 120.046 137.071,98.689 226.719,158.264 265.750 C 200.063 293.135,258.751 272.432,273.212 225.200 C 276.803 213.471,277.001 212.212,276.978 201.200 C 276.941 183.042,272.799 171.119,260.561 153.947 C 246.527 134.253,216.325 121.936,191.600 125.822 M381.200 217.474 C 371.115 218.228,347.363 222.234,344.766 223.619 C 344.379 223.826,343.698 225.641,343.018 228.279 C 342.406 230.655,341.038 235.390,339.978 238.800 C 333.761 258.801,333.483 257.662,346.734 266.527 C 350.180 268.833,355.700 272.615,359.000 274.932 C 369.275 282.147,370.572 282.572,372.311 279.300 C 379.258 266.229,387.181 235.060,387.197 220.747 C 387.201 216.956,387.313 217.017,381.200 217.474 M15.500 235.482 L 13.600 235.644 13.600 237.608 C 13.600 250.048,29.023 290.082,36.535 297.139 L 37.434 297.984 39.417 296.635 C 42.295 294.676,44.491 292.696,66.355 272.340 L 69.310 269.589 69.083 267.694 C 68.840 265.664,57.843 237.003,56.923 236.000 C 56.390 235.419,21.379 234.982,15.500 235.482 M302.734 304.364 C 297.479 307.883,282.699 320.112,278.881 324.099 L 277.562 325.477 281.361 338.038 C 286.569 355.260,290.246 365.615,291.147 365.594 C 292.996 365.552,304.078 359.075,310.597 354.228 C 322.336 345.498,342.400 325.935,342.400 323.218 C 342.400 322.013,332.929 316.454,319.200 309.601 C 316.890 308.448,312.994 306.356,310.543 304.952 C 305.237 301.913,306.277 301.992,302.734 304.364 M100.552 313.990 C 92.526 318.442,67.600 335.915,67.600 337.090 C 67.600 340.910,96.515 361.973,111.642 369.173 C 120.997 373.625,124.172 374.147,124.584 371.300 C 124.734 370.255,125.846 364.990,127.053 359.600 C 133.681 330.016,133.889 331.982,123.374 324.920 C 117.597 321.040,104.006 312.400,103.691 312.405 C 103.531 312.408,102.118 313.121,100.552 313.990 M186.930 347.112 C 185.254 347.289,185.426 346.989,181.622 356.400 C 178.495 364.134,175.145 372.025,171.820 379.487 C 168.556 386.814,168.869 387.658,175.258 388.762 C 197.385 392.587,235.497 391.538,236.331 387.081 C 236.623 385.525,223.698 352.851,221.410 349.360 C 219.971 347.163,219.506 347.103,203.221 347.038 C 194.960 347.005,187.628 347.038,186.930 347.112 " stroke="none" fill="#c5fbfc" fill-rule="evenodd"></path></g></svg>